<?xml version="1.0" encoding="UTF-8"?><svg xmlns="http://www.w3.org/2000/svg" width="100%" height="100%"><defs><font id="web" horiz-adv-x="1157"><!--



NOTICE: This font software is the valuable property 
of Monotype Imaging and/or its suppliers and its use 
by you is covered under the terms of the Web Font license 
agreement between you and Monotype Imaging. You may 
ONLY use this font software with the licensed web site. 
Except as specifically permitted by the license, you 
may not copy this font software. If you have any questions, 
please contact Monotype Imaging. 

For more information, please visit http://www.ascenderfonts.com/info/webfont-eula.aspx

Licensed to: microsoft.com

Serial number: SH-269
--><font-face font-family="" units-per-em="2048" panose-1="2 11 7 2 4 2 4 2 2 3" ascent="2210" descent="-514" alphabetic="0"/><missing-glyph horiz-adv-x="1322" d="M166 0V1398H1156V0H166ZM314 148H1008V1250H314V148Z"/><glyph unicode="&#13;" horiz-adv-x="154"/><glyph unicode=" " horiz-adv-x="563"/><glyph unicode="!" horiz-adv-x="622" d="M422 1434L403 422H213L187 1434H422ZM311 -20Q251 -20 209 18T167 112Q167 169 209 209T311 249Q369 249 411 209T454 112Q454 57 412 19T311 -20Z"/><glyph unicode="&quot;" horiz-adv-x="896" d="M359 1442V995H177V1442H359ZM720 1442V995H536V1442H720Z"/><glyph unicode="#" horiz-adv-x="1211" d="M1170 1049L1139 909H912L854 633H1102L1067 493H825L743 123H584L664 493H422L344 123H185L263 493H34L62 633H294L349 909H105L134 1049H378L458 1434H619L540 1049H782L864 1434H1022L942 1049H1170ZM754 909H510L450 633H695L754 909Z"/><glyph unicode="$" horiz-adv-x="1137" d="M642 8V-209H519V0Q297 0 158 86V309Q219 256 323 220T519 184V629Q283 738 214 830T144 1048Q144 1197 250 1305T519 1436V1616H642V1440Q852 1434 932 1384V1170Q823 1250 642 1256V795Q862 693 943 597T1024 380Q1024 233 923 134T642 8ZM519 852V1251Q444 1236 400 1187T356 1068Q356 994 392 947T519 852ZM642 575V190Q812 226 812 367Q812 485 642 575Z"/><glyph unicode="%" horiz-adv-x="1721" d="M416 714Q264 714 174 811T84 1072Q84 1250 179 1352T437 1455Q594 1455 680 1360T767 1093Q767 921 670 818T416 714ZM430 1315Q348 1315 301 1252T253 1079Q253 971 299 911T427 851Q508 851 554 913T600 1087Q600 1195 555 1255T430 1315ZM1387 1434L467 -10H324L1243 1434H1387ZM1258 -22Q1106 -22 1016 75T926 336Q926 514 1021 616T1279 719Q1436 719 1522 624T1609 357Q1609 185 1512 82T1258 -22ZM1272 579Q1190 579 1143 516T1095 343Q1095 235 1141 175T1269 115Q1350 115 1396 177T1442 351Q1442 459 1397 519T1272 579Z"/><glyph unicode="&amp;" horiz-adv-x="1684" d="M1479 -23Q1416 -23 1368 -9T1280 31T1201 94T1121 179Q1080 140 1027 104T908 40T765 -5T596 -22Q486 -22 394 5T237 84T135 214T99 390Q99 543 187 651T434 829Q404 851 374 880T321 947T283 1030T268 1130Q268 1209 298 1270T383 1373T510 1436T669 1458Q753 1458 823 1437T943 1375T1021 1279T1049 1155Q1049 1034 981 955T775 820Q844 795 900 760T1003 680T1088 586T1162 481Q1237 589 1275 718T1313 990Q1313 1026 1309 1058T1296 1121H1504Q1514 1089 1516 1061T1521 993Q1521 906 1500 818T1444 647T1362 481T1264 321Q1299 283 1328 255T1387 207T1449 179T1521 170Q1552 170 1583 178T1647 198V13Q1607 -5 1564 -14T1479 -23ZM629 163Q699 163 757 178T865 217T955 274T1029 343Q971 428 922 488T824 592T718 667T587 726Q532 704 486 677T407 612T354 526T335 410Q335 349 358 303T421 225T514 179T629 163ZM838 1129Q838 1172 822 1202T782 1253T727 1282T668 1291Q583 1291 533 1245T482 1120Q482 1085 492 1054T522 995T568 948T623 912Q731 950 784 1001T838 1129Z"/><glyph unicode="'" horiz-adv-x="529" d="M356 1442V995H173V1442H356Z"/><glyph unicode="(" horiz-adv-x="680" d="M660 -326H464Q148 28 148 547Q148 1068 464 1434H661Q351 1054 351 549Q351 48 660 -326Z"/><glyph unicode=")" horiz-adv-x="680" d="M217 -326H21Q331 48 331 549Q331 1054 20 1434H218Q535 1068 535 547Q535 28 217 -326Z"/><glyph unicode="*" horiz-adv-x="889" d="M818 1081L544 1034L736 805L594 707L446 967L298 707L155 805L348 1034L73 1081L130 1241L387 1138L355 1434H537L505 1138L762 1241L818 1081Z"/><glyph unicode="+" horiz-adv-x="1422" d="M1190 510H795V115H630V510H235V675H630V1071H795V675H1190V510Z"/><glyph unicode="," horiz-adv-x="494" d="M368 239L213 -260H39L149 239H368Z"/><glyph unicode="-" horiz-adv-x="823" d="M690 474H144V645H690V474Z"/><glyph unicode="." horiz-adv-x="494" d="M247 -22Q187 -22 145 17T103 112Q103 168 145 208T247 248Q308 248 350 208T393 112Q393 57 351 18T247 -22Z"/><glyph unicode="/" horiz-adv-x="847" d="M867 1434L174 -238H-37L653 1434H867Z"/><glyph unicode="0" horiz-adv-x="1137" d="M553 -24Q329 -24 204 159T78 688Q78 1068 209 1263T587 1458Q1060 1458 1060 723Q1060 359 927 168T553 -24ZM576 1273Q315 1273 315 698Q315 160 571 160Q823 160 823 707Q823 1273 576 1273Z"/><glyph unicode="1" horiz-adv-x="1137" d="M1027 0H173V192H485V1206L165 1121V1323L717 1461V192H1027V0Z"/><glyph unicode="2" horiz-adv-x="1137" d="M1001 0H101V191L498 576Q650 723 715 820T780 1029Q780 1143 713 1205T520 1268Q337 1268 170 1104V1327Q347 1458 581 1458Q783 1458 899 1357T1015 1063Q1015 934 943 811T666 487L371 204V199H1001V0Z"/><glyph unicode="3" horiz-adv-x="1137" d="M138 53V271Q278 160 454 160Q597 160 682 225T768 401Q768 645 395 645H284V831H390Q721 831 721 1061Q721 1273 463 1273Q319 1273 192 1170V1376Q338 1458 537 1458Q728 1458 843 1362T958 1116Q958 833 670 752V748Q825 733 915 640T1005 406Q1005 213 860 95T478 -24Q265 -24 138 53Z"/><glyph unicode="4" horiz-adv-x="1137" d="M1074 346H895V0H677V346H25V496L647 1434H895V521H1074V346ZM677 521V1076Q677 1135 681 1208H677Q665 1176 628 1110L238 521H677Z"/><glyph unicode="5" horiz-adv-x="1137" d="M164 33V256Q305 161 450 161Q596 161 685 235T774 434Q774 556 684 624T424 692Q366 692 209 680V1434H946V1236H413V877Q478 881 534 881Q762 881 886 764T1011 444Q1011 231 869 103T477 -26Q267 -26 164 33Z"/><glyph unicode="6" horiz-adv-x="1137" d="M967 1417V1216Q860 1273 742 1273Q559 1273 449 1125T339 728H343Q440 908 663 908Q846 908 954 786T1062 460Q1062 246 929 111T590 -24Q363 -24 234 148T105 631Q105 1008 273 1233T720 1458Q876 1458 967 1417ZM593 726Q485 726 418 651T350 472Q350 343 417 252T595 160Q700 160 765 239T830 441Q830 575 768 650T593 726Z"/><glyph unicode="7" horiz-adv-x="1137" d="M1048 1340L508 0H264L789 1236H90V1434H1048V1340Z"/><glyph unicode="8" horiz-adv-x="1137" d="M392 752V756Q139 876 139 1103Q139 1259 266 1358T593 1458Q774 1458 890 1365T1006 1126Q1006 888 740 756V752Q1048 640 1048 364Q1048 186 913 81T537 -24Q342 -24 217 80T91 350Q91 626 392 752ZM780 1091Q780 1178 726 1228T577 1279Q489 1279 428 1227T367 1093Q367 928 572 844Q780 930 780 1091ZM560 651Q318 554 318 371Q318 276 388 215T574 154Q683 154 752 214T822 365Q822 557 560 651Z"/><glyph unicode="9" horiz-adv-x="1137" d="M166 27V228Q282 160 412 160Q601 160 706 297T811 688Q809 687 807 688Q718 522 497 522Q318 522 203 648T87 974Q87 1186 223 1322T570 1458Q792 1458 916 1291T1041 802Q1041 406 879 191T429 -24Q277 -24 166 27ZM554 1273Q453 1273 385 1194T317 994Q317 860 383 784T564 708Q663 708 731 777T800 948Q800 1091 732 1182T554 1273Z"/><glyph unicode=":" horiz-adv-x="494" d="M247 -22Q187 -22 145 17T103 112Q103 168 145 208T247 248Q308 248 350 208T393 112Q393 57 351 18T247 -22ZM247 769Q187 769 145 808T103 903Q103 959 145 999T247 1039Q308 1039 350 999T393 903Q393 848 351 809T247 769Z"/><glyph unicode=";" horiz-adv-x="494" d="M247 771Q188 771 148 811T107 908Q107 964 147 1003T247 1042Q304 1042 345 1003T386 908Q386 852 345 812T247 771ZM368 239L216 -264H39L148 239H368Z"/><glyph unicode="&lt;" horiz-adv-x="1422" d="M1159 98L266 527V633L1159 1099V909L506 585V581L1159 287V98Z"/><glyph unicode="=" horiz-adv-x="1422" d="M1190 724H235V889H1190V724ZM1190 295H235V459H1190V295Z"/><glyph unicode="&gt;" horiz-adv-x="1422" d="M1159 533L266 104V293L920 584V590L266 914V1104L1159 639V533Z"/><glyph unicode="?" horiz-adv-x="909" d="M303 405Q294 430 287 470T280 549Q280 610 304 659T365 752T444 835T523 913T584 993T609 1085Q609 1130 591 1163T542 1219T470 1253T383 1264Q234 1264 99 1131V1362Q263 1458 439 1458Q520 1458 592 1437T718 1375T803 1273T834 1131Q834 1054 808 994T743 884T658 794T573 716T507 635T481 542Q481 499 492 464T514 405H303ZM417 -18Q360 -18 316 21Q274 59 274 115Q274 172 316 209Q359 249 417 249Q474 249 517 209Q559 172 559 115Q559 59 517 21Q473 -18 417 -18Z"/><glyph unicode="@" horiz-adv-x="1955" d="M1147 397H1142Q1070 182 860 182Q726 182 644 282T562 553Q562 778 674 927T971 1076Q1041 1076 1096 1038T1167 945H1170Q1173 973 1185 1060H1351Q1304 532 1304 522Q1304 324 1407 324Q1501 324 1563 434T1625 721Q1625 981 1458 1145T993 1310Q708 1310 521 1111T334 613Q334 318 514 137T999 -44Q1239 -44 1410 38V-116Q1235 -190 973 -190Q605 -190 380 30T155 606Q155 972 393 1213T1001 1454Q1348 1454 1575 1252T1803 725Q1803 487 1680 335T1378 182Q1148 182 1147 397ZM988 934Q878 934 811 826T743 557Q743 449 788 387T910 324Q1020 324 1084 437T1148 738Q1148 934 988 934Z"/><glyph unicode="A" horiz-adv-x="1375" d="M1355 0H1094L965 365H401L277 0H17L554 1434H822L1355 0ZM902 559L703 1131Q694 1159 684 1221H680Q671 1164 660 1131L463 559H902Z"/><glyph unicode="B" horiz-adv-x="1237" d="M177 0V1434H632Q840 1434 961 1343T1083 1106Q1083 984 1014 894T823 766V762Q971 745 1059 653T1148 412Q1148 228 1003 114T637 0H177ZM414 1243V835H568Q692 835 762 893T833 1059Q833 1243 587 1243H414ZM414 644V190H617Q750 190 822 251T895 421Q895 644 586 644H414Z"/><glyph unicode="C" horiz-adv-x="1272" d="M1177 60Q1015 -24 774 -24Q462 -24 274 173T86 690Q86 1034 297 1246T832 1458Q1040 1458 1177 1399V1163Q1032 1249 857 1249Q624 1249 480 1100T335 702Q335 465 470 325T825 184Q1028 184 1177 280V60Z"/><glyph unicode="D" horiz-adv-x="1469" d="M177 0V1434H591Q1384 1434 1384 735Q1384 403 1164 202T574 0H177ZM414 1232V201H604Q855 201 994 339T1134 729Q1134 1232 613 1232H414Z"/><glyph unicode="E" horiz-adv-x="1060" d="M982 0H177V1434H950V1232H415V826H908V625H415V201H982V0Z"/><glyph unicode="F" horiz-adv-x="1029" d="M951 1232H415V801H909V600H415V0H177V1434H951V1232Z"/><glyph unicode="G" horiz-adv-x="1428" d="M1296 98Q1072 -24 797 -24Q479 -24 282 174T85 698Q85 1031 300 1244T848 1458Q1087 1458 1250 1388V1143Q1085 1253 857 1253Q628 1253 482 1102T335 711Q335 464 461 323T803 181Q951 181 1059 238V579H757V779H1296V98Z"/><glyph unicode="H" horiz-adv-x="1506" d="M1329 0H1090V622H415V0H177V1434H415V831H1090V1434H1329V0Z"/><glyph unicode="I" horiz-adv-x="592" d="M546 1434V1242H415V192H546V0H46V192H177V1242H46V1434H546Z"/><glyph unicode="J" horiz-adv-x="812" d="M648 514Q648 259 522 118T186 -24Q88 -24 25 -1V223Q82 184 172 184Q410 184 410 552V1434H648V514Z"/><glyph unicode="K" horiz-adv-x="1251" d="M1262 0H952L453 656Q425 693 419 706H415V0H177V1434H415V760H419Q431 782 453 809L934 1434H1219L656 746L1262 0Z"/><glyph unicode="L" horiz-adv-x="1001" d="M971 0H177V1434H415V201H971V0Z"/><glyph unicode="M" horiz-adv-x="1893" d="M1717 0H1481V928Q1481 1042 1495 1207H1491Q1469 1113 1452 1072L1024 0H860L431 1064Q413 1111 393 1207H389Q397 1121 397 926V0H177V1434H512L889 479Q932 369 945 315H950Q987 428 1010 483L1394 1434H1717V0Z"/><glyph unicode="N" horiz-adv-x="1571" d="M1393 0H1133L448 1054Q422 1094 405 1137H399Q407 1091 407 940V0H177V1434H454L1116 405Q1158 341 1170 317H1174Q1164 374 1164 510V1434H1393V0Z"/><glyph unicode="O" horiz-adv-x="1548" d="M768 -24Q458 -24 272 177T85 700Q85 1046 275 1252T791 1458Q1093 1458 1277 1258T1462 735Q1462 384 1273 180T768 -24ZM779 1249Q582 1249 459 1102T335 715Q335 476 455 330T769 184Q975 184 1094 323T1213 712Q1213 969 1098 1109T779 1249Z"/><glyph unicode="P" horiz-adv-x="1197" d="M414 520V0H177V1434H612Q859 1434 995 1319T1131 995Q1131 786 989 653T605 520H414ZM414 1238V714H568Q721 714 801 785T881 985Q881 1238 587 1238H414Z"/><glyph unicode="Q" horiz-adv-x="1548" d="M741 -23Q678 -23 613 -11T486 27T368 91T266 179Q85 380 85 704Q85 1050 274 1255Q465 1461 796 1461Q1093 1461 1278 1261Q1463 1061 1463 738Q1463 604 1434 485T1347 270T1200 108T989 12Q1042 -39 1088 -78T1181 -143T1277 -184T1387 -198Q1403 -198 1422 -197T1460 -192T1496 -184T1529 -173V-385Q1512 -391 1490 -395T1446 -402T1403 -406T1362 -408Q1258 -408 1176 -378T1021 -296T882 -173T741 -23ZM779 1249Q581 1249 457 1102Q334 955 334 715Q334 477 454 329Q575 184 768 184Q975 184 1094 323Q1213 462 1213 712Q1213 970 1097 1109Q982 1249 779 1249Z"/><glyph unicode="R" horiz-adv-x="1275" d="M1285 0H1007L778 384Q747 437 718 474T658 536T591 571T510 582H414V0H177V1434H649Q750 1434 835 1410T983 1338T1081 1217T1117 1047Q1117 971 1095 908T1031 795T931 710T799 656V652Q838 630 867 604T922 549T973 486T1030 403L1285 0ZM414 1241V775H612Q667 775 713 792T794 841T847 919T866 1022Q866 1125 801 1183T614 1241H414Z"/><glyph unicode="S" horiz-adv-x="1115" d="M111 57V302Q144 272 189 248T286 208T388 182T482 173Q632 173 705 223T779 368Q779 419 755 456T686 525T583 584T455 644Q382 683 319 723T210 811T137 921T110 1064Q110 1165 155 1239T275 1362T445 1434T639 1458Q864 1458 967 1407V1172Q845 1260 653 1260Q600 1260 548 1250T454 1217T386 1158T360 1071Q360 1023 380 988T438 924T532 868T661 808Q736 769 802 726T919 631T999 516T1029 371Q1029 262 985 187T867 65T695 -3T490 -24Q454 -24 402 -19T294 -3T190 23T111 57Z"/><glyph unicode="T" horiz-adv-x="1130" d="M1097 1232H685V0H447V1232H36V1434H1097V1232Z"/><glyph unicode="U" horiz-adv-x="1440" d="M1280 580Q1280 -24 708 -24Q160 -24 160 557V1434H398V606Q398 184 726 184Q1042 184 1042 591V1434H1280V580Z"/><glyph unicode="V" horiz-adv-x="1314" d="M1301 1434L786 0H520L14 1434H274L628 346Q645 294 654 225H658Q665 282 687 348L1049 1434H1301Z"/><glyph unicode="W" horiz-adv-x="1978" d="M1956 1434L1563 0H1294L1021 1003Q1004 1067 1000 1143H996Q991 1072 972 1005L698 0H423L22 1434H283L543 384Q559 318 563 246H568Q572 297 596 384L890 1434H1135L1407 376Q1421 322 1428 248H1432Q1435 298 1455 380L1710 1434H1956Z"/><glyph unicode="X" horiz-adv-x="1268" d="M1249 0H964L670 526Q657 550 641 594H637Q628 572 607 526L304 0H17L487 721L55 1434H346L605 950Q630 902 650 854H653Q682 917 703 954L972 1434H1240L798 723L1249 0Z"/><glyph unicode="Y" horiz-adv-x="1182" d="M1176 1434L706 521V0H468V516L10 1434H281L563 819Q568 808 593 736H596Q605 768 629 819L924 1434H1176Z"/><glyph unicode="Z" horiz-adv-x="1202" d="M1155 1330L369 201H1145V0H36V109L825 1232H97V1434H1155V1330Z"/><glyph unicode="[" horiz-adv-x="680" d="M621 -326H208V1434H621V1278H405V-170H621V-326Z"/><glyph unicode="\" horiz-adv-x="829" d="M869 -240H663L-13 1434H197L869 -240Z"/><glyph unicode="]" horiz-adv-x="680" d="M474 -326H61V-170H277V1278H61V1434H474V-326Z"/><glyph unicode="^" horiz-adv-x="1422" d="M1208 618H1016L704 1222H698L407 618H218L643 1458H752L1208 618Z"/><glyph unicode="_" horiz-adv-x="850" d="M850 -297H0V-178H850V-297Z"/><glyph unicode="`" horiz-adv-x="591" d="M527 1204H354L92 1532H306L527 1204Z"/><glyph unicode="a" horiz-adv-x="1069" d="M937 0H712V160H708Q602 -24 397 -24Q246 -24 161 58T75 275Q75 565 409 613L713 656Q713 875 505 875Q322 875 175 749V952Q337 1048 549 1048Q937 1048 937 666V0ZM713 503L498 473Q398 460 348 425T297 300Q297 235 343 194T468 152Q574 152 643 226T713 414V503Z"/><glyph unicode="b" horiz-adv-x="1234" d="M387 148H383V0H151V1516H383V844H387Q506 1048 735 1048Q929 1048 1038 911T1148 542Q1148 285 1025 131T689 -24Q489 -24 387 148ZM381 555V428Q381 316 452 238T634 160Q763 160 836 260T910 541Q910 692 842 777T656 863Q532 863 457 775T381 555Z"/><glyph unicode="c" horiz-adv-x="963" d="M884 47Q761 -24 593 -24Q365 -24 225 118T85 488Q85 741 235 894T638 1048Q778 1048 885 999V783Q778 863 657 863Q510 863 416 764T322 503Q322 344 410 252T648 160Q773 160 884 249V47Z"/><glyph unicode="d" horiz-adv-x="1234" d="M1082 0H850V174H846Q734 -24 501 -24Q312 -24 199 113T85 488Q85 742 210 895T545 1048Q752 1048 846 882H850V1516H1082V0ZM853 468V602Q853 711 782 787T601 863Q471 863 397 766T322 497Q322 341 393 251T586 160Q705 160 779 247T853 468Z"/><glyph unicode="e" horiz-adv-x="1088" d="M1018 449H320Q324 307 407 230T637 153Q801 153 938 251V64Q798 -24 568 -24Q342 -24 214 115T85 508Q85 747 226 897T578 1048Q788 1048 903 913T1018 538V449ZM794 613Q793 738 735 807T575 877Q475 877 406 804T320 613H794Z"/><glyph unicode="f" horiz-adv-x="706" d="M730 1327Q683 1354 623 1354Q454 1354 454 1163V1024H692V842H455V0H223V842H48V1024H223V1190Q223 1352 329 1445T594 1539Q680 1539 730 1520V1327Z"/><glyph unicode="g" horiz-adv-x="1234" d="M1083 82Q1083 -482 516 -482Q316 -482 167 -415V-203Q335 -299 486 -299Q851 -299 851 60V172H847Q732 -24 501 -24Q314 -24 200 112T85 479Q85 740 208 894T546 1048Q749 1048 847 882H851V1024H1083V82ZM853 469V602Q853 710 782 786T603 863Q471 863 397 766T322 493Q322 342 393 252T583 161Q703 161 778 247T853 469Z"/><glyph unicode="h" horiz-adv-x="1192" d="M1061 0H829V560Q829 864 626 864Q524 864 454 776T384 551V0H151V1516H384V854H388Q504 1048 720 1048Q1061 1048 1061 631V0Z"/><glyph unicode="i" horiz-adv-x="535" d="M268 1239Q211 1239 171 1276T130 1370Q130 1427 170 1465T268 1503Q327 1503 368 1465T409 1370Q409 1316 368 1278T268 1239ZM383 0H151V1024H383V0Z"/><glyph unicode="j" horiz-adv-x="535" d="M383 43Q383 -209 277 -345T-26 -482Q-99 -482 -168 -450V-251Q-103 -296 -45 -296Q151 -296 151 50V1024H383V43ZM269 1239Q212 1239 172 1276T131 1370Q131 1427 171 1465T269 1503Q327 1503 368 1465T409 1370Q409 1316 368 1278T269 1239Z"/><glyph unicode="k" horiz-adv-x="1075" d="M1080 0H786L388 492H384V0H151V1516H384V555H388L764 1024H1043L620 530L1080 0Z"/><glyph unicode="l" horiz-adv-x="535" d="M384 0H151V1516H384V0Z"/><glyph unicode="m" horiz-adv-x="1814" d="M1682 0H1450V558Q1450 719 1405 791T1251 863Q1160 863 1097 772T1033 554V0H800V577Q800 863 598 863Q504 863 444 777T383 554V0H151V1024H383V862H387Q498 1048 710 1048Q816 1048 895 990T1004 836Q1118 1048 1344 1048Q1682 1048 1682 631V0Z"/><glyph unicode="n" horiz-adv-x="1195" d="M1063 0H831V577Q831 864 628 864Q522 864 453 785T384 584V0H151V1024H384V854H388Q503 1048 720 1048Q887 1048 975 940T1063 626V0Z"/><glyph unicode="o" horiz-adv-x="1223" d="M605 -24Q368 -24 227 119T85 500Q85 758 232 903T630 1048Q870 1048 1004 907T1138 516Q1138 271 994 124T605 -24ZM616 863Q480 863 401 768T322 506Q322 345 402 253T616 160Q753 160 826 251T900 510Q900 679 827 771T616 863Z"/><glyph unicode="p" horiz-adv-x="1234" d="M387 151H383V-471H151V1024H383V844H387Q506 1048 735 1048Q930 1048 1039 911T1148 543Q1148 287 1025 133T689 -21Q493 -21 387 151ZM381 555V428Q381 316 452 238T634 160Q763 160 836 260T910 541Q910 692 842 777T656 863Q532 863 457 775T381 555Z"/><glyph unicode="q" horiz-adv-x="1234" d="M1082 -471H850V176H846Q741 -24 503 -24Q314 -24 200 113T85 488Q85 743 210 895T548 1048Q754 1048 846 882H850V1024H1082V-471ZM853 466V598Q853 709 782 786T600 863Q471 863 397 767T322 494Q322 338 394 249T580 160Q705 160 779 247T853 466Z"/><glyph unicode="r" horiz-adv-x="758" d="M745 803Q703 836 624 836Q521 836 452 743T383 490V0H151V1024H383V813H387Q421 921 491 981T649 1042Q712 1042 745 1023V803Z"/><glyph unicode="s" horiz-adv-x="883" d="M87 32V247Q217 148 374 148Q584 148 584 272Q584 307 566 331T518 375T446 409T353 443Q290 468 240 496T156 559T105 640T88 745Q88 819 123 875T217 970T351 1028T506 1048Q648 1048 760 1005V802Q652 876 512 876Q468 876 433 867T372 842T333 804T319 754Q319 721 333 698T374 658T440 626T529 594Q595 567 647 539T737 476T794 394T814 283Q814 205 778 147T682 51T544 -5T378 -24Q210 -24 87 32Z"/><glyph unicode="t" horiz-adv-x="740" d="M691 11Q623 -23 512 -23Q214 -23 214 263V842H43V1024H214V1261L446 1327V1024H691V842H446V330Q446 239 479 200T589 161Q648 161 691 195V11Z"/><glyph unicode="u" horiz-adv-x="1195" d="M1044 0H812V162H808Q707 -24 494 -24Q131 -24 131 412V1024H363V436Q363 160 576 160Q679 160 745 236T812 435V1024H1044V0Z"/><glyph unicode="v" horiz-adv-x="1039" d="M1033 1024L637 0H386L9 1024H261L488 308Q514 229 520 170H523Q532 244 551 304L789 1024H1033Z"/><glyph unicode="w" horiz-adv-x="1549" d="M1528 1024L1226 0H983L797 694Q786 734 783 784H779Q777 750 761 696L559 0H321L20 1024H260L446 286Q455 253 458 198H465Q468 240 481 288L688 1024H906L1090 283Q1099 248 1103 195H1110Q1112 232 1125 283L1307 1024H1528Z"/><glyph unicode="x" horiz-adv-x="1026" d="M1007 1024L666 506L1003 0H734L554 317Q537 346 514 391H510Q506 382 468 317L285 0H17L365 502L35 1024H305L482 691Q502 654 521 615H524L753 1024H1007Z"/><glyph unicode="y" horiz-adv-x="1041" d="M1038 1024L576 -164Q432 -482 172 -482Q99 -482 50 -469V-276Q105 -294 150 -294Q280 -294 344 -166L413 2L6 1024H263L507 280Q511 266 525 206H530Q535 229 548 278L804 1024H1038Z"/><glyph unicode="z" horiz-adv-x="951" d="M907 927L354 181H905V0H29V87L594 843H83V1024H907V927Z"/><glyph unicode="{" horiz-adv-x="680" d="M608 -326Q252 -322 252 -22V273Q252 471 96 481V627Q252 637 252 839V1126Q252 1430 608 1434V1279Q449 1275 449 1088V806Q449 604 250 557V554Q449 510 449 307V28Q449 -79 484 -124T608 -172V-326Z"/><glyph unicode="|" horiz-adv-x="570" d="M383 -482H189V1566H383V-482Z"/><glyph unicode="}" horiz-adv-x="680" d="M583 481Q428 471 428 273V-22Q428 -322 74 -326V-172Q161 -170 197 -124T234 28V307Q234 510 431 554V557Q234 604 234 806V1088Q234 1275 74 1279V1434Q428 1430 428 1126V839Q428 637 583 627V481Z"/><glyph unicode="~" horiz-adv-x="1422" d="M1220 759Q1213 600 1140 513T940 425Q831 425 674 523Q577 590 515 590Q375 590 369 421H203Q208 576 282 666T484 756Q597 756 720 680Q852 589 917 589Q978 589 1015 636T1054 759H1220Z"/><glyph unicode=" " horiz-adv-x="563"/><glyph unicode="¡" horiz-adv-x="622" d="M311 778Q251 778 209 817T167 912Q167 968 209 1007T312 1047Q370 1047 412 1008T454 912Q454 856 412 817T311 778ZM435 -406H191L218 605H407L435 -406Z"/><glyph unicode="¢" horiz-adv-x="1137" d="M975 208Q887 150 772 140V-49H631V142Q423 164 300 303T177 649Q177 868 300 1015T631 1200V1414H772V1211Q885 1209 975 1159V946Q882 1013 772 1020V330Q884 342 975 416V208ZM631 339V1009Q524 982 464 892T403 669Q403 537 464 450T631 339Z"/><glyph unicode="£" horiz-adv-x="1137" d="M1055 0H123V176Q329 238 329 457V625H144V800H329V1045Q329 1226 444 1342T744 1458Q868 1458 970 1417V1216Q875 1273 769 1273Q551 1273 551 1006V800H835V625H551V487Q551 272 358 186H1055V0Z"/><glyph unicode="¤" horiz-adv-x="1138" d="M1060 356L946 238L806 377Q702 306 570 306Q433 306 329 374L192 238L78 356L218 492Q146 603 146 725Q146 852 218 958L78 1096L192 1214L333 1075Q442 1147 570 1147Q698 1147 805 1075L946 1214L1060 1096L921 958Q995 848 995 725Q995 606 921 492L1060 356ZM570 985Q461 985 386 909T311 727Q311 621 387 545T570 469Q676 469 753 545T830 727Q830 833 752 909T570 985Z"/><glyph unicode="¥" horiz-adv-x="1137" d="M1093 1434L738 784H1008V623H687V440H1008V279H687V0H459V279H128V440H459V623H128V784H403L55 1434H305L536 940Q562 884 579 833H583Q595 873 628 946L857 1434H1093Z"/><glyph unicode="¦" horiz-adv-x="570" d="M383 701H189V1566H383V701ZM383 -482H189V390H383V-482Z"/><glyph unicode="§" horiz-adv-x="952" d="M697 424Q787 349 787 235Q787 101 680 18T407 -66Q267 -66 152 -10V186Q284 107 405 107Q490 107 536 142T583 233Q583 280 548 313T366 416Q131 536 131 729Q131 890 276 970Q170 1054 170 1196Q170 1325 269 1408T531 1491Q669 1491 764 1448V1257Q664 1319 543 1319Q377 1319 377 1191Q377 1143 418 1103T624 994Q849 887 849 700Q849 530 697 424ZM423 884Q328 839 328 743Q328 679 381 631T566 527Q649 587 649 679Q649 743 600 788T423 884Z"/><glyph unicode="¨" horiz-adv-x="892" d="M649 1203Q599 1203 563 1236T526 1320Q526 1369 561 1402T646 1435Q699 1435 735 1402T772 1320Q772 1271 737 1237T649 1203ZM233 1203Q181 1203 144 1237T107 1320Q107 1369 142 1402T229 1435Q280 1435 317 1402T355 1320Q355 1271 319 1237T233 1203Z"/><glyph unicode="©" horiz-adv-x="1808" d="M905 -29Q591 -29 370 189T148 717Q148 1026 369 1244T905 1463Q1218 1463 1439 1245T1661 717Q1661 408 1440 190T905 -29ZM905 1364Q636 1364 446 1175T256 717Q256 449 446 260T905 70Q1174 70 1363 259T1553 717Q1553 985 1364 1174T905 1364ZM1206 275Q1093 210 938 210Q731 210 591 348T450 693Q450 934 593 1077T967 1221Q1099 1221 1202 1170V980Q1114 1052 968 1052Q824 1052 731 959T637 710Q637 558 732 466T975 374Q1110 374 1206 452V275Z"/><glyph unicode="ª" horiz-adv-x="820" d="M711 717H544V817H540Q463 697 315 697Q208 697 143 757T77 912Q77 1116 320 1149L544 1180Q544 1323 399 1323Q265 1323 148 1241V1391Q263 1455 424 1455Q559 1455 635 1384T711 1182V717ZM544 1066L389 1044Q245 1024 245 928Q245 882 279 854T370 825Q439 825 491 878T544 1007V1066Z"/><glyph unicode="«" horiz-adv-x="1105" d="M1032 200H818L507 536L818 880H1032L714 536L1032 200ZM599 200H387L74 536L387 880H598L281 536L599 200Z"/><glyph unicode="¬" horiz-adv-x="1422" d="M1190 259H1026V671H235V835H1190V259Z"/><glyph unicode="­" horiz-adv-x="823" d="M690 474H144V645H690V474Z"/><glyph unicode="®" horiz-adv-x="1808" d="M905 -29Q591 -29 370 189T148 717Q148 1026 369 1244T905 1463Q1218 1463 1439 1245T1661 717Q1661 408 1440 190T905 -29ZM905 1364Q636 1364 446 1175T256 717Q256 449 446 260T905 70Q1174 70 1363 259T1553 717Q1553 985 1364 1174T905 1364ZM1293 255H1083L991 472Q921 635 840 635H762V255H594V1195H876Q1052 1195 1147 1126T1243 939Q1243 842 1185 774T1012 683V679Q1091 662 1169 505L1293 255ZM762 1053V770H888Q1061 770 1061 912Q1061 989 1015 1021T867 1053H762Z"/><glyph unicode="¯" horiz-adv-x="850" d="M850 1396H0V1516H850V1396Z"/><glyph unicode="°" horiz-adv-x="775" d="M392 896Q275 896 193 978T111 1178Q111 1294 192 1374T389 1454Q507 1454 589 1374T672 1178Q672 1060 590 978T392 896ZM392 1321Q332 1321 290 1279T247 1177Q247 1116 288 1073T390 1029Q449 1029 492 1073T536 1177Q536 1238 494 1279T392 1321Z"/><glyph unicode="±" horiz-adv-x="1422" d="M1190 671H795V275H632V671H236V835H632V1233H795V835H1190V671ZM1189 0H235V164H1189V0Z"/><glyph unicode="²" horiz-adv-x="785" d="M686 884H109V1017L339 1237Q438 1332 465 1383T492 1485Q492 1536 459 1568T370 1600Q253 1600 156 1498V1677Q243 1754 398 1754Q524 1754 597 1686T671 1505Q671 1362 478 1180L323 1035V1031H686V884Z"/><glyph unicode="³" horiz-adv-x="785" d="M130 916V1076Q234 1003 349 1003Q424 1003 467 1036T511 1125Q511 1249 296 1249H214V1389H292Q484 1389 484 1506Q484 1612 352 1612Q255 1612 160 1545V1700Q252 1754 385 1754Q507 1754 579 1694T651 1536Q651 1389 507 1336V1332Q681 1290 681 1132Q681 1013 591 938T350 863Q210 863 130 916Z"/><glyph unicode="´" horiz-adv-x="597" d="M568 1546L282 1218H110L352 1546H568Z"/><glyph unicode="µ" horiz-adv-x="1215" d="M1098 0H859Q836 69 836 161H831Q758 -23 587 -23Q446 -23 386 73H383V-395H151V1024H383V414Q383 302 442 236T596 169Q699 169 763 247T828 457V1024H1063V265Q1063 77 1098 0Z"/><glyph unicode="¶" horiz-adv-x="985" d="M884 1304H761V0H625V1304H485V0H346V874Q233 874 159 954T84 1156Q84 1279 163 1356T357 1434H884V1304Z"/><glyph unicode="·" horiz-adv-x="494" d="M245 499Q186 499 145 539T103 635Q103 692 145 731T248 771Q308 771 350 732T393 635Q393 579 350 539T245 499Z"/><glyph unicode="¸" horiz-adv-x="429" d="M420 -248Q420 -442 132 -442Q85 -442 51 -439V-328Q95 -334 122 -334Q255 -334 255 -252Q255 -178 134 -178Q124 -178 95 -182V0H231V-94Q318 -94 369 -134T420 -248Z"/><glyph unicode="¹" horiz-adv-x="759" d="M676 884H145V1023H326V1564L134 1516V1665L495 1755V1023H676V884Z"/><glyph unicode="º" horiz-adv-x="905" d="M446 696Q272 696 173 797T74 1073Q74 1252 180 1353T461 1454Q631 1454 729 1355T828 1085Q828 907 725 802T446 696ZM453 1315Q361 1315 307 1251T253 1073Q253 962 304 899T452 836Q543 836 596 901T650 1077Q650 1188 598 1251T453 1315Z"/><glyph unicode="»" horiz-adv-x="1105" d="M1033 538L720 200H509L824 538L509 880H720L1033 538ZM600 538L288 200H74L394 538L74 880H288L600 538Z"/><glyph unicode="¼" horiz-adv-x="1898" d="M913 584H382V723H563V1264L371 1216V1365L732 1455V723H913V584ZM1447 1434L572 0H383L1256 1434H1447ZM1769 192H1659V1H1490V192H1096V306L1457 851H1659V322H1769V192ZM1494 704H1489Q1477 673 1450 630L1255 322H1490V622Q1490 652 1494 704Z"/><glyph unicode="½" horiz-adv-x="1938" d="M913 584H382V723H563V1264L371 1216V1365L732 1455V723H913V584ZM1790 1H1213V134L1443 354Q1542 449 1569 500T1596 602Q1596 653 1563 685T1474 717Q1357 717 1260 615V794Q1347 871 1502 871Q1628 871 1701 803T1775 622Q1775 479 1582 297L1427 152V148H1790V1ZM1445 1434L570 0H381L1254 1434H1445Z"/><glyph unicode="¾" horiz-adv-x="1975" d="M130 616V776Q234 703 349 703Q424 703 467 736T511 825Q511 949 296 949H214V1089H292Q484 1089 484 1206Q484 1312 352 1312Q255 1312 160 1245V1400Q252 1454 385 1454Q507 1454 579 1394T651 1236Q651 1089 507 1036V1032Q681 990 681 832Q681 713 591 638T350 563Q210 563 130 616ZM1511 1434L636 0H447L1320 1434H1511ZM1825 192H1715V1H1546V192H1152V306L1513 851H1715V322H1825V192ZM1550 704H1545Q1533 673 1506 630L1311 322H1546V622Q1546 652 1550 704Z"/><glyph unicode="¿" horiz-adv-x="909" d="M634 621Q643 596 650 557T657 479Q657 419 633 370T573 279T495 197T417 118T357 34T333 -63Q333 -105 349 -137T392 -192T455 -225T531 -236Q707 -236 837 -104V-336Q676 -430 503 -430Q420 -430 348 -409T221 -345T134 -240T102 -94Q102 -21 128 36T193 142T279 232T364 315T430 400T456 499Q456 537 447 568T428 621H634ZM519 1047Q576 1047 621 1008Q664 970 664 912Q664 856 621 817Q578 777 519 777Q461 777 419 817Q376 856 376 912Q376 970 419 1008Q462 1047 519 1047Z"/><glyph unicode="À" horiz-adv-x="1375" d="M1355 0H1094L965 365H401L277 0H17L554 1434H822L1355 0ZM902 559L703 1131Q694 1159 684 1221H680Q671 1164 660 1131L463 559H902ZM828 1566H655L393 1894H607L828 1566Z"/><glyph unicode="Á" horiz-adv-x="1375" d="M1355 0H1094L965 365H401L277 0H17L554 1434H822L1355 0ZM902 559L703 1131Q694 1159 684 1221H680Q671 1164 660 1131L463 559H902ZM954 1908L668 1580H496L738 1908H954Z"/><glyph unicode="Â" horiz-adv-x="1375" d="M1355 0H1094L965 365H401L277 0H17L554 1434H822L1355 0ZM902 559L703 1131Q694 1159 684 1221H680Q671 1164 660 1131L463 559H902ZM994 1566H834L673 1777L516 1566H361L585 1894H769L994 1566Z"/><glyph unicode="Ã" horiz-adv-x="1375" d="M1355 0H1094L965 365H401L277 0H17L554 1434H822L1355 0ZM902 559L703 1131Q694 1159 684 1221H680Q671 1164 660 1131L463 559H902ZM1021 1836Q1021 1720 970 1647T830 1573Q758 1573 665 1621Q587 1666 544 1666Q460 1666 460 1555H345Q345 1674 396 1745T539 1817Q607 1817 696 1766Q768 1722 821 1722Q902 1722 902 1836H1021Z"/><glyph unicode="Ä" horiz-adv-x="1375" d="M1355 0H1094L965 365H401L277 0H17L554 1434H822L1355 0ZM902 559L703 1131Q694 1159 684 1221H680Q671 1164 660 1131L463 559H902ZM886 1565Q836 1565 800 1598T763 1682Q763 1731 798 1764T883 1797Q936 1797 972 1764T1009 1682Q1009 1633 974 1599T886 1565ZM470 1565Q418 1565 381 1599T344 1682Q344 1731 379 1764T466 1797Q517 1797 554 1764T592 1682Q592 1633 556 1599T470 1565Z"/><glyph unicode="Å" horiz-adv-x="1375" d="M1355 0H1094L965 365H401L277 0H17L554 1434H822L1355 0ZM902 559L703 1131Q694 1159 684 1221H680Q671 1164 660 1131L463 559H902ZM679 1333Q585 1333 524 1387T462 1529Q462 1627 525 1685T686 1743Q782 1743 843 1685T905 1535Q905 1448 840 1391T679 1333ZM679 1643Q634 1643 605 1613T575 1539Q575 1435 679 1435Q727 1435 758 1464T790 1539Q790 1584 759 1613T679 1643Z"/><glyph unicode="Æ" horiz-adv-x="1831" d="M1749 0H945V365H453L281 0H6L716 1434H1716V1232H1182V826H1679V625H1182V201H1749V0ZM945 559V1232H858L541 559H945Z"/><glyph unicode="Ç" horiz-adv-x="1272" d="M1177 60Q1015 -24 774 -24Q462 -24 274 173T86 690Q86 1034 297 1246T832 1458Q1040 1458 1177 1399V1163Q1032 1249 857 1249Q624 1249 480 1100T335 702Q335 465 470 325T825 184Q1028 184 1177 280V60ZM984 -248Q984 -442 696 -442Q649 -442 615 -439V-328Q659 -334 686 -334Q819 -334 819 -252Q819 -178 698 -178Q688 -178 659 -182V0H795V-94Q882 -94 933 -134T984 -248Z"/><glyph unicode="È" horiz-adv-x="1060" d="M982 0H177V1434H950V1232H415V826H908V625H415V201H982V0ZM731 1566H558L296 1894H510L731 1566Z"/><glyph unicode="É" horiz-adv-x="1060" d="M982 0H177V1434H950V1232H415V826H908V625H415V201H982V0ZM873 1908L587 1580H415L657 1908H873Z"/><glyph unicode="Ê" horiz-adv-x="1060" d="M982 0H177V1434H950V1232H415V826H908V625H415V201H982V0ZM873 1567H713L552 1778L395 1567H240L464 1895H648L873 1567Z"/><glyph unicode="Ë" horiz-adv-x="1060" d="M982 0H177V1434H950V1232H415V826H908V625H415V201H982V0ZM776 1565Q726 1565 690 1598T653 1682Q653 1731 688 1764T773 1797Q826 1797 862 1764T899 1682Q899 1633 864 1599T776 1565ZM360 1565Q308 1565 271 1599T234 1682Q234 1731 269 1764T356 1797Q407 1797 444 1764T482 1682Q482 1633 446 1599T360 1565Z"/><glyph unicode="Ì" horiz-adv-x="592" d="M546 1434V1242H415V192H546V0H46V192H177V1242H46V1434H546ZM469 1566H296L34 1894H248L469 1566Z"/><glyph unicode="Í" horiz-adv-x="592" d="M546 1434V1242H415V192H546V0H46V192H177V1242H46V1434H546ZM584 1908L298 1580H126L368 1908H584Z"/><glyph unicode="Î" horiz-adv-x="592" d="M546 1434V1242H415V192H546V0H46V192H177V1242H46V1434H546ZM620 1567H460L299 1778L142 1567H-13L211 1895H395L620 1567Z"/><glyph unicode="Ï" horiz-adv-x="592" d="M546 1434V1242H415V192H546V0H46V192H177V1242H46V1434H546ZM511 1565Q461 1565 425 1598T388 1682Q388 1731 423 1764T508 1797Q561 1797 597 1764T634 1682Q634 1633 599 1599T511 1565ZM95 1565Q43 1565 6 1599T-31 1682Q-31 1731 4 1764T91 1797Q142 1797 179 1764T217 1682Q217 1633 181 1599T95 1565Z"/><glyph unicode="Ð" horiz-adv-x="1469" d="M177 0V616H15V821H177V1434H591Q1384 1434 1384 735Q1384 401 1164 201T574 0H177ZM414 1232V821H721V616H414V201H604Q855 201 994 339T1134 731Q1134 1232 613 1232H414Z"/><glyph unicode="Ñ" horiz-adv-x="1571" d="M1393 0H1133L448 1054Q422 1094 405 1137H399Q407 1091 407 940V0H177V1434H454L1116 405Q1158 341 1170 317H1174Q1164 374 1164 510V1434H1393V0ZM1154 1836Q1154 1720 1103 1647T963 1573Q891 1573 798 1621Q720 1666 677 1666Q593 1666 593 1555H478Q478 1674 529 1745T672 1817Q740 1817 829 1766Q901 1722 954 1722Q1035 1722 1035 1836H1154Z"/><glyph unicode="Ò" horiz-adv-x="1548" d="M768 -24Q458 -24 272 177T85 700Q85 1046 275 1252T791 1458Q1093 1458 1277 1258T1462 735Q1462 384 1273 180T768 -24ZM779 1249Q582 1249 459 1102T335 715Q335 476 455 330T769 184Q975 184 1094 323T1213 712Q1213 969 1098 1109T779 1249ZM920 1566H747L485 1894H699L920 1566Z"/><glyph unicode="Ó" horiz-adv-x="1548" d="M768 -24Q458 -24 272 177T85 700Q85 1046 275 1252T791 1458Q1093 1458 1277 1258T1462 735Q1462 384 1273 180T768 -24ZM779 1249Q582 1249 459 1102T335 715Q335 476 455 330T769 184Q975 184 1094 323T1213 712Q1213 969 1098 1109T779 1249ZM1076 1908L790 1580H618L860 1908H1076Z"/><glyph unicode="Ô" horiz-adv-x="1548" d="M768 -24Q458 -24 272 177T85 700Q85 1046 275 1252T791 1458Q1093 1458 1277 1258T1462 735Q1462 384 1273 180T768 -24ZM779 1249Q582 1249 459 1102T335 715Q335 476 455 330T769 184Q975 184 1094 323T1213 712Q1213 969 1098 1109T779 1249ZM1101 1566H941L780 1777L623 1566H468L692 1894H876L1101 1566Z"/><glyph unicode="Õ" horiz-adv-x="1548" d="M768 -24Q458 -24 272 177T85 700Q85 1046 275 1252T791 1458Q1093 1458 1277 1258T1462 735Q1462 384 1273 180T768 -24ZM779 1249Q582 1249 459 1102T335 715Q335 476 455 330T769 184Q975 184 1094 323T1213 712Q1213 969 1098 1109T779 1249ZM1122 1835Q1122 1719 1071 1646T931 1572Q859 1572 766 1620Q688 1665 645 1665Q561 1665 561 1554H446Q446 1673 497 1744T640 1816Q708 1816 797 1765Q869 1721 922 1721Q1003 1721 1003 1835H1122Z"/><glyph unicode="Ö" horiz-adv-x="1548" d="M768 -24Q458 -24 272 177T85 700Q85 1046 275 1252T791 1458Q1093 1458 1277 1258T1462 735Q1462 384 1273 180T768 -24ZM779 1249Q582 1249 459 1102T335 715Q335 476 455 330T769 184Q975 184 1094 323T1213 712Q1213 969 1098 1109T779 1249ZM983 1564Q933 1564 897 1597T860 1681Q860 1730 895 1763T980 1796Q1033 1796 1069 1763T1106 1681Q1106 1632 1071 1598T983 1564ZM567 1564Q515 1564 478 1598T441 1681Q441 1730 476 1763T563 1796Q614 1796 651 1763T689 1681Q689 1632 653 1598T567 1564Z"/><glyph unicode="×" horiz-adv-x="1422" d="M1168 253L1052 137L712 477L373 137L256 254L596 591L256 931L371 1048L712 708L1053 1048L1167 929L828 591L1168 253Z"/><glyph unicode="Ø" horiz-adv-x="1548" d="M335 121L187 -56L88 27L242 211Q85 404 85 700Q85 1043 274 1250T792 1458Q1025 1458 1193 1333L1325 1490L1424 1409L1287 1247Q1463 1053 1463 735Q1463 384 1274 180T768 -24Q507 -24 335 121ZM1057 1171Q946 1261 781 1261Q577 1261 451 1110T324 715Q324 523 399 394L1057 1171ZM1136 1069L477 289Q591 172 768 172Q980 172 1102 314T1224 712Q1224 934 1136 1069Z"/><glyph unicode="Ù" horiz-adv-x="1440" d="M1280 580Q1280 -24 708 -24Q160 -24 160 557V1434H398V606Q398 184 726 184Q1042 184 1042 591V1434H1280V580ZM870 1566H697L435 1894H649L870 1566Z"/><glyph unicode="Ú" horiz-adv-x="1440" d="M1280 580Q1280 -24 708 -24Q160 -24 160 557V1434H398V606Q398 184 726 184Q1042 184 1042 591V1434H1280V580ZM1029 1908L743 1580H571L813 1908H1029Z"/><glyph unicode="Û" horiz-adv-x="1440" d="M1280 580Q1280 -24 708 -24Q160 -24 160 557V1434H398V606Q398 184 726 184Q1042 184 1042 591V1434H1280V580ZM1037 1567H877L716 1778L559 1567H404L628 1895H812L1037 1567Z"/><glyph unicode="Ü" horiz-adv-x="1440" d="M1280 580Q1280 -24 708 -24Q160 -24 160 557V1434H398V606Q398 184 726 184Q1042 184 1042 591V1434H1280V580ZM927 1566Q877 1566 841 1599T804 1683Q804 1732 839 1765T924 1798Q977 1798 1013 1765T1050 1683Q1050 1634 1015 1600T927 1566ZM511 1566Q459 1566 422 1600T385 1683Q385 1732 420 1765T507 1798Q558 1798 595 1765T633 1683Q633 1634 597 1600T511 1566Z"/><glyph unicode="Ý" horiz-adv-x="1182" d="M1176 1434L706 521V0H468V516L10 1434H281L563 819Q568 808 593 736H596Q605 768 629 819L924 1434H1176ZM908 1894L622 1566H450L692 1894H908Z"/><glyph unicode="Þ" horiz-adv-x="1197" d="M415 301V0H177V1434H415V1215H622Q867 1215 999 1100T1131 774Q1131 565 988 433T603 301H415ZM415 1020V496H569Q720 496 800 565T881 763Q881 1020 587 1020H415Z"/><glyph unicode="ß" horiz-adv-x="1191" d="M498 2V208Q568 160 656 160Q758 160 822 224T886 397Q886 528 791 610T527 709V880Q636 898 707 972T778 1149Q778 1246 728 1299T592 1353Q383 1353 383 1073V0H151V1084Q151 1290 274 1414T607 1538Q793 1538 904 1442T1016 1189Q1016 1060 943 958T753 817V812Q1124 738 1124 390Q1124 214 1005 95T688 -24Q581 -24 498 2Z"/><glyph unicode="à" horiz-adv-x="1069" d="M937 0H712V160H708Q602 -24 397 -24Q246 -24 161 58T75 275Q75 565 409 613L713 656Q713 875 505 875Q322 875 175 749V952Q337 1048 549 1048Q937 1048 937 666V0ZM713 503L498 473Q398 460 348 425T297 300Q297 235 343 194T468 152Q574 152 643 226T713 414V503ZM719 1204H546L284 1532H498L719 1204Z"/><glyph unicode="á" horiz-adv-x="1069" d="M937 0H712V160H708Q602 -24 397 -24Q246 -24 161 58T75 275Q75 565 409 613L713 656Q713 875 505 875Q322 875 175 749V952Q337 1048 549 1048Q937 1048 937 666V0ZM713 503L498 473Q398 460 348 425T297 300Q297 235 343 194T468 152Q574 152 643 226T713 414V503ZM828 1546L542 1218H370L612 1546H828Z"/><glyph unicode="â" horiz-adv-x="1069" d="M937 0H712V160H708Q602 -24 397 -24Q246 -24 161 58T75 275Q75 565 409 613L713 656Q713 875 505 875Q322 875 175 749V952Q337 1048 549 1048Q937 1048 937 666V0ZM713 503L498 473Q398 460 348 425T297 300Q297 235 343 194T468 152Q574 152 643 226T713 414V503ZM854 1204H694L533 1415L376 1204H221L445 1532H629L854 1204Z"/><glyph unicode="ã" horiz-adv-x="1069" d="M937 0H712V160H708Q602 -24 397 -24Q246 -24 161 58T75 275Q75 565 409 613L713 656Q713 875 505 875Q322 875 175 749V952Q337 1048 549 1048Q937 1048 937 666V0ZM713 503L498 473Q398 460 348 425T297 300Q297 235 343 194T468 152Q574 152 643 226T713 414V503ZM872 1475Q872 1359 821 1286T681 1212Q609 1212 516 1260Q438 1305 395 1305Q311 1305 311 1194H196Q196 1313 247 1384T390 1456Q458 1456 547 1405Q619 1361 672 1361Q753 1361 753 1475H872Z"/><glyph unicode="ä" horiz-adv-x="1069" d="M937 0H712V160H708Q602 -24 397 -24Q246 -24 161 58T75 275Q75 565 409 613L713 656Q713 875 505 875Q322 875 175 749V952Q337 1048 549 1048Q937 1048 937 666V0ZM713 503L498 473Q398 460 348 425T297 300Q297 235 343 194T468 152Q574 152 643 226T713 414V503ZM742 1203Q692 1203 656 1236T619 1320Q619 1369 654 1402T739 1435Q792 1435 828 1402T865 1320Q865 1271 830 1237T742 1203ZM326 1203Q274 1203 237 1237T200 1320Q200 1369 235 1402T322 1435Q373 1435 410 1402T448 1320Q448 1271 412 1237T326 1203Z"/><glyph unicode="å" horiz-adv-x="1069" d="M937 0H712V160H708Q602 -24 397 -24Q246 -24 161 58T75 275Q75 565 409 613L713 656Q713 875 505 875Q322 875 175 749V952Q337 1048 549 1048Q937 1048 937 666V0ZM713 503L498 473Q398 460 348 425T297 300Q297 235 343 194T468 152Q574 152 643 226T713 414V503ZM541 1180Q447 1180 386 1234T324 1376Q324 1474 387 1532T548 1590Q644 1590 705 1532T767 1382Q767 1295 702 1238T541 1180ZM541 1490Q496 1490 467 1460T437 1386Q437 1282 541 1282Q589 1282 620 1311T652 1386Q652 1431 621 1460T541 1490Z"/><glyph unicode="æ" horiz-adv-x="1700" d="M1630 449H931Q934 307 1016 230T1241 152Q1412 152 1551 251V65Q1416 -24 1184 -24Q909 -24 794 182H790Q650 -24 418 -24Q258 -24 167 58T75 279Q75 585 454 610L713 626Q713 876 512 876Q334 876 176 761V957Q328 1048 533 1048Q773 1048 844 878H848Q962 1048 1197 1048Q1403 1048 1516 913T1630 536V449ZM1406 613Q1404 740 1347 808T1187 877Q1089 877 1019 805T932 613H1406ZM713 412V467L536 456Q415 449 356 413T296 294Q296 230 342 191T468 152Q571 152 642 226T713 412Z"/><glyph unicode="ç" horiz-adv-x="963" d="M884 47Q761 -24 593 -24Q365 -24 225 118T85 488Q85 741 235 894T638 1048Q778 1048 885 999V783Q778 863 657 863Q510 863 416 764T322 503Q322 344 410 252T648 160Q773 160 884 249V47ZM801 -248Q801 -442 513 -442Q466 -442 432 -439V-328Q476 -334 503 -334Q636 -334 636 -252Q636 -178 515 -178Q505 -178 476 -182V0H612V-94Q699 -94 750 -134T801 -248Z"/><glyph unicode="è" horiz-adv-x="1088" d="M1018 449H320Q324 307 407 230T637 153Q801 153 938 251V64Q798 -24 568 -24Q342 -24 214 115T85 508Q85 747 226 897T578 1048Q788 1048 903 913T1018 538V449ZM794 613Q793 738 735 807T575 877Q475 877 406 804T320 613H794ZM756 1204H583L321 1532H535L756 1204Z"/><glyph unicode="é" horiz-adv-x="1088" d="M1018 449H320Q324 307 407 230T637 153Q801 153 938 251V64Q798 -24 568 -24Q342 -24 214 115T85 508Q85 747 226 897T578 1048Q788 1048 903 913T1018 538V449ZM794 613Q793 738 735 807T575 877Q475 877 406 804T320 613H794ZM863 1546L577 1218H405L647 1546H863Z"/><glyph unicode="ê" horiz-adv-x="1088" d="M1018 449H320Q324 307 407 230T637 153Q801 153 938 251V64Q798 -24 568 -24Q342 -24 214 115T85 508Q85 747 226 897T578 1048Q788 1048 903 913T1018 538V449ZM794 613Q793 738 735 807T575 877Q475 877 406 804T320 613H794ZM888 1204H728L567 1415L410 1204H255L479 1532H663L888 1204Z"/><glyph unicode="ë" horiz-adv-x="1088" d="M1018 449H320Q324 307 407 230T637 153Q801 153 938 251V64Q798 -24 568 -24Q342 -24 214 115T85 508Q85 747 226 897T578 1048Q788 1048 903 913T1018 538V449ZM794 613Q793 738 735 807T575 877Q475 877 406 804T320 613H794ZM773 1203Q723 1203 687 1236T650 1320Q650 1369 685 1402T770 1435Q823 1435 859 1402T896 1320Q896 1271 861 1237T773 1203ZM357 1203Q305 1203 268 1237T231 1320Q231 1369 266 1402T353 1435Q404 1435 441 1402T479 1320Q479 1271 443 1237T357 1203Z"/><glyph unicode="ì" horiz-adv-x="535" d="M384 0H151V1024H384V0ZM691 1204H518L256 1532H470L691 1204Z"/><glyph unicode="í" horiz-adv-x="535" d="M384 0H151V1024H384V0ZM807 1546L521 1218H349L591 1546H807Z"/><glyph unicode="î" horiz-adv-x="535" d="M384 0H151V1024H384V0ZM838 1204H678L517 1415L360 1204H205L429 1532H613L838 1204Z"/><glyph unicode="ï" horiz-adv-x="535" d="M384 0H151V1024H384V0ZM474 1203Q424 1203 388 1236T351 1320Q351 1369 386 1402T471 1435Q524 1435 560 1402T597 1320Q597 1271 562 1237T474 1203ZM58 1203Q6 1203 -31 1237T-68 1320Q-68 1369 -33 1402T54 1435Q105 1435 142 1402T180 1320Q180 1271 144 1237T58 1203Z"/><glyph unicode="ð" horiz-adv-x="1176" d="M772 966L776 969Q686 1123 579 1222L284 1074L219 1192L476 1315Q357 1420 210 1516H490Q557 1471 643 1397L925 1536L990 1423L748 1304Q1090 997 1090 542Q1090 295 954 137T584 -22Q349 -22 217 119T85 506Q85 745 214 894T564 1043Q686 1043 772 966ZM595 863Q468 863 395 768T322 509Q322 348 393 254T591 160Q712 160 782 256T853 514Q853 863 595 863Z"/><glyph unicode="ñ" horiz-adv-x="1195" d="M1063 0H831V577Q831 864 628 864Q522 864 453 785T384 584V0H151V1024H384V854H388Q503 1048 720 1048Q887 1048 975 940T1063 626V0ZM941 1475Q941 1359 890 1286T750 1212Q678 1212 585 1260Q507 1305 464 1305Q380 1305 380 1194H265Q265 1313 316 1384T459 1456Q527 1456 616 1405Q688 1361 741 1361Q822 1361 822 1475H941Z"/><glyph unicode="ò" horiz-adv-x="1223" d="M605 -24Q368 -24 227 119T85 500Q85 758 232 903T630 1048Q870 1048 1004 907T1138 516Q1138 271 994 124T605 -24ZM616 863Q480 863 401 768T322 506Q322 345 402 253T616 160Q753 160 826 251T900 510Q900 679 827 771T616 863ZM794 1204H621L359 1532H573L794 1204Z"/><glyph unicode="ó" horiz-adv-x="1223" d="M605 -24Q368 -24 227 119T85 500Q85 758 232 903T630 1048Q870 1048 1004 907T1138 516Q1138 271 994 124T605 -24ZM616 863Q480 863 401 768T322 506Q322 345 402 253T616 160Q753 160 826 251T900 510Q900 679 827 771T616 863ZM912 1546L626 1218H454L696 1546H912Z"/><glyph unicode="ô" horiz-adv-x="1223" d="M605 -24Q368 -24 227 119T85 500Q85 758 232 903T630 1048Q870 1048 1004 907T1138 516Q1138 271 994 124T605 -24ZM616 863Q480 863 401 768T322 506Q322 345 402 253T616 160Q753 160 826 251T900 510Q900 679 827 771T616 863ZM931 1204H771L610 1415L453 1204H298L522 1532H706L931 1204Z"/><glyph unicode="õ" horiz-adv-x="1223" d="M605 -24Q368 -24 227 119T85 500Q85 758 232 903T630 1048Q870 1048 1004 907T1138 516Q1138 271 994 124T605 -24ZM616 863Q480 863 401 768T322 506Q322 345 402 253T616 160Q753 160 826 251T900 510Q900 679 827 771T616 863ZM955 1475Q955 1359 904 1286T764 1212Q692 1212 599 1260Q521 1305 478 1305Q394 1305 394 1194H279Q279 1313 330 1384T473 1456Q541 1456 630 1405Q702 1361 755 1361Q836 1361 836 1475H955Z"/><glyph unicode="ö" horiz-adv-x="1223" d="M605 -24Q368 -24 227 119T85 500Q85 758 232 903T630 1048Q870 1048 1004 907T1138 516Q1138 271 994 124T605 -24ZM616 863Q480 863 401 768T322 506Q322 345 402 253T616 160Q753 160 826 251T900 510Q900 679 827 771T616 863ZM822 1203Q772 1203 736 1236T699 1320Q699 1369 734 1402T819 1435Q872 1435 908 1402T945 1320Q945 1271 910 1237T822 1203ZM406 1203Q354 1203 317 1237T280 1320Q280 1369 315 1402T402 1435Q453 1435 490 1402T528 1320Q528 1271 492 1237T406 1203Z"/><glyph unicode="÷" horiz-adv-x="1422" d="M723 858Q670 858 634 892T597 977Q597 1029 630 1065T718 1102Q836 1102 836 979Q836 926 803 892T723 858ZM1190 509H234V674H1190V509ZM714 82Q663 82 628 116T592 200Q592 251 626 288T714 326Q831 326 831 202Q831 151 798 117T714 82Z"/><glyph unicode="ø" horiz-adv-x="1223" d="M1188 1030L1033 866Q1138 729 1138 522Q1138 270 993 123T605 -24Q411 -24 283 71L143 -80L44 10L188 165Q85 302 85 506Q85 762 232 905T627 1049Q812 1049 937 958L1088 1121L1188 1030ZM798 815Q731 874 617 874Q476 874 395 777T313 509Q313 404 348 331L798 815ZM877 701L421 213Q497 151 615 151Q760 151 836 245T912 512Q912 622 877 701Z"/><glyph unicode="ù" horiz-adv-x="1195" d="M1044 0H812V162H808Q707 -24 494 -24Q131 -24 131 412V1024H363V436Q363 160 576 160Q679 160 745 236T812 435V1024H1044V0ZM740 1204H567L305 1532H519L740 1204Z"/><glyph unicode="ú" horiz-adv-x="1195" d="M1044 0H812V162H808Q707 -24 494 -24Q131 -24 131 412V1024H363V436Q363 160 576 160Q679 160 745 236T812 435V1024H1044V0ZM913 1546L627 1218H455L697 1546H913Z"/><glyph unicode="û" horiz-adv-x="1195" d="M1044 0H812V162H808Q707 -24 494 -24Q131 -24 131 412V1024H363V436Q363 160 576 160Q679 160 745 236T812 435V1024H1044V0ZM905 1204H745L584 1415L427 1204H272L496 1532H680L905 1204Z"/><glyph unicode="ü" horiz-adv-x="1195" d="M1044 0H812V162H808Q707 -24 494 -24Q131 -24 131 412V1024H363V436Q363 160 576 160Q679 160 745 236T812 435V1024H1044V0ZM802 1203Q752 1203 716 1236T679 1320Q679 1369 714 1402T799 1435Q852 1435 888 1402T925 1320Q925 1271 890 1237T802 1203ZM386 1203Q334 1203 297 1237T260 1320Q260 1369 295 1402T382 1435Q433 1435 470 1402T508 1320Q508 1271 472 1237T386 1203Z"/><glyph unicode="ý" horiz-adv-x="1041" d="M1038 1024L576 -164Q432 -482 172 -482Q99 -482 50 -469V-276Q105 -294 150 -294Q280 -294 344 -166L413 2L6 1024H263L507 280Q511 266 525 206H530Q535 229 548 278L804 1024H1038ZM845 1546L559 1218H387L629 1546H845Z"/><glyph unicode="þ" horiz-adv-x="1234" d="M383 134V-471H151V1516H383V855H387Q504 1048 730 1048Q927 1048 1037 911T1148 542Q1148 285 1024 131T683 -24Q489 -24 383 134ZM381 551V435Q381 320 452 240T633 160Q763 160 836 262T910 545Q910 694 841 778T654 863Q531 863 456 774T381 551Z"/><glyph unicode="ÿ" horiz-adv-x="1041" d="M1038 1024L576 -164Q432 -482 172 -482Q99 -482 50 -469V-276Q105 -294 150 -294Q280 -294 344 -166L413 2L6 1024H263L507 280Q511 266 525 206H530Q535 229 548 278L804 1024H1038ZM735 1203Q685 1203 649 1236T612 1320Q612 1369 647 1402T732 1435Q785 1435 821 1402T858 1320Q858 1271 823 1237T735 1203ZM319 1203Q267 1203 230 1237T193 1320Q193 1369 228 1402T315 1435Q366 1435 403 1402T441 1320Q441 1271 405 1237T319 1203Z"/><glyph unicode="ı" horiz-adv-x="535" d="M384 0H151V1024H384V0Z"/><glyph unicode="Œ" horiz-adv-x="1915" d="M1832 0H1097Q1080 0 956 -14Q856 -24 770 -24Q454 -24 270 177T85 700Q85 1046 277 1252T799 1458Q891 1458 981 1448Q1095 1434 1097 1434H1800V1232H1265V824H1761V622H1265V201H1832V0ZM1023 225V1210Q879 1249 782 1249Q583 1249 460 1099T336 715Q336 482 457 333T776 184Q881 184 1023 225Z"/><glyph unicode="œ" horiz-adv-x="1897" d="M1830 448H1130Q1133 306 1215 229T1441 152Q1610 152 1749 250V63Q1615 -24 1396 -24Q1124 -24 1011 190H1007Q877 -23 594 -23Q360 -23 223 119T85 498Q85 756 230 902T620 1048Q907 1048 1013 840H1017Q1139 1048 1411 1048Q1609 1048 1719 912T1830 540V448ZM1605 612Q1603 737 1546 806T1388 876Q1286 876 1216 801T1131 612H1605ZM617 863Q481 863 402 767T322 502Q322 344 401 253T615 161Q751 161 825 251T900 508Q900 679 826 771T617 863Z"/><glyph unicode="Š" horiz-adv-x="1115" d="M111 57V302Q144 272 189 248T286 208T388 182T482 173Q632 173 705 223T779 368Q779 419 755 456T686 525T583 584T455 644Q382 683 319 723T210 811T137 921T110 1064Q110 1165 155 1239T275 1362T445 1434T639 1458Q864 1458 967 1407V1172Q845 1260 653 1260Q600 1260 548 1250T454 1217T386 1158T360 1071Q360 1023 380 988T438 924T532 868T661 808Q736 769 802 726T919 631T999 516T1029 371Q1029 262 985 187T867 65T695 -3T490 -24Q454 -24 402 -19T294 -3T190 23T111 57ZM891 1881L667 1554H482L258 1881H413L573 1671L734 1881H891Z"/><glyph unicode="š" horiz-adv-x="883" d="M87 32V247Q217 148 374 148Q584 148 584 272Q584 307 566 331T518 375T446 409T353 443Q290 468 240 496T156 559T105 640T88 745Q88 819 123 875T217 970T351 1028T506 1048Q648 1048 760 1005V802Q652 876 512 876Q468 876 433 867T372 842T333 804T319 754Q319 721 333 698T374 658T440 626T529 594Q595 567 647 539T737 476T794 394T814 283Q814 205 778 147T682 51T544 -5T378 -24Q210 -24 87 32ZM792 1531L568 1204H383L159 1531H314L474 1321L635 1531H792Z"/><glyph unicode="Ÿ" horiz-adv-x="1182" d="M1176 1434L706 521V0H468V516L10 1434H281L563 819Q568 808 593 736H596Q605 768 629 819L924 1434H1176ZM802 1565Q752 1565 716 1598T679 1682Q679 1731 714 1764T799 1797Q852 1797 888 1764T925 1682Q925 1633 890 1599T802 1565ZM386 1565Q334 1565 297 1599T260 1682Q260 1731 295 1764T382 1797Q433 1797 470 1764T508 1682Q508 1633 472 1599T386 1565Z"/><glyph unicode="Ž" horiz-adv-x="1202" d="M1155 1330L369 201H1145V0H36V109L825 1232H97V1434H1155V1330ZM940 1878L716 1551H531L307 1878H462L622 1668L783 1878H940Z"/><glyph unicode="ž" horiz-adv-x="951" d="M907 927L354 181H905V0H29V87L594 843H83V1024H907V927ZM822 1531L598 1204H413L189 1531H344L504 1321L665 1531H822Z"/><glyph unicode="ƒ" horiz-adv-x="1137" d="M993 1225Q940 1253 874 1253Q736 1253 714 1103L687 927H849V755H660L563 120Q501 -290 190 -290Q155 -290 87 -272V-84Q121 -105 169 -105Q313 -105 350 165L438 755H334V927H467L487 1075Q507 1240 606 1339T858 1439Q932 1439 993 1415V1225Z"/><glyph unicode="ȷ" horiz-adv-x="535" d="M383 31Q383 -215 277 -348T-26 -481Q-99 -481 -168 -450V-254Q-100 -296 -39 -296Q151 -296 151 6V1024H383V31Z"/><glyph unicode="ˆ" horiz-adv-x="771" d="M698 1204H538L377 1415L220 1204H65L289 1532H473L698 1204Z"/><glyph unicode="ˇ" horiz-adv-x="771" d="M704 1531L480 1204H295L71 1531H226L386 1321L547 1531H704Z"/><glyph unicode="˙" horiz-adv-x="460" d="M230 1203Q180 1203 144 1236T107 1319Q107 1367 143 1400T230 1433Q281 1433 317 1401T353 1319Q353 1271 317 1237T230 1203Z"/><glyph unicode="˚" horiz-adv-x="565" d="M279 1180Q185 1180 124 1234T62 1376Q62 1474 125 1532T286 1590Q382 1590 443 1532T505 1382Q505 1295 440 1238T279 1180ZM279 1490Q234 1490 205 1460T175 1386Q175 1282 279 1282Q327 1282 358 1311T390 1386Q390 1431 359 1460T279 1490Z"/><glyph unicode="˜" horiz-adv-x="733" d="M711 1475Q711 1359 660 1286T520 1212Q448 1212 355 1260Q277 1305 234 1305Q150 1305 150 1194H35Q35 1313 86 1384T229 1456Q297 1456 386 1405Q458 1361 511 1361Q592 1361 592 1475H711Z"/><glyph unicode="‐" horiz-adv-x="823" d="M690 474H144V645H690V474Z"/><glyph unicode="–" horiz-adv-x="1024" d="M1024 474H0V645H1024V474Z"/><glyph unicode="—" horiz-adv-x="2048" d="M2048 474H0V645H2048V474Z"/><glyph unicode="‘" horiz-adv-x="525" d="M417 1462L308 1017H101L264 1462H417Z"/><glyph unicode="’" horiz-adv-x="525" d="M427 1462L264 1017H111L224 1462H427Z"/><glyph unicode="‚" horiz-adv-x="525" d="M405 218L241 -227H88L201 218H405Z"/><glyph unicode="“" horiz-adv-x="879" d="M771 1462L659 1017H456L619 1462H771ZM417 1462L308 1017H101L264 1462H417Z"/><glyph unicode="”" horiz-adv-x="879" d="M781 1462L619 1017H465L576 1462H781ZM427 1462L264 1017H111L224 1462H427Z"/><glyph unicode="„" horiz-adv-x="879" d="M759 218L595 -227H443L553 218H759ZM405 218L241 -227H88L201 218H405Z"/><glyph unicode="†" horiz-adv-x="797" d="M729 977H478V244H315V977H65V1116H315V1434H478V1116H729V977Z"/><glyph unicode="‡" horiz-adv-x="797" d="M729 567H478V244H315V567H65V704H315V980H65V1121H315V1432H478V1121H729V980H478V704H729V567Z"/><glyph unicode="•" horiz-adv-x="847" d="M425 362Q321 362 246 435T171 612Q171 715 246 790T425 866Q529 866 602 791T675 612Q675 508 602 435T425 362Z"/><glyph unicode="…" horiz-adv-x="1666" d="M1387 -20Q1356 -20 1331 -10T1286 19T1257 62T1246 114Q1246 143 1257 168T1287 211T1332 239T1388 250Q1418 250 1444 240T1490 212T1521 169T1532 114Q1532 85 1521 61T1491 18T1445 -10T1387 -20ZM831 -20Q801 -20 775 -10T730 19T700 61T689 114Q689 144 700 169T730 212T776 240T832 250Q862 250 888 240T934 211T965 168T976 114Q976 86 965 62T935 19T889 -9T831 -20ZM275 -20Q245 -20 219 -10T175 19T146 62T135 114Q135 143 145 167T174 210T219 239T276 250Q306 250 332 240T378 211T409 168T420 114Q420 86 409 62T379 19T333 -9T275 -20Z"/><glyph unicode="‰" horiz-adv-x="2521" d="M416 711Q264 711 174 809T84 1070Q84 1249 179 1352T437 1455Q594 1455 680 1360T767 1092Q767 919 670 815T416 711ZM430 1315Q348 1315 301 1252T253 1079Q253 971 299 911T427 851Q508 851 554 913T600 1087Q600 1195 555 1255T430 1315ZM1415 1434L488 -5H300L1226 1434H1415ZM2084 -21Q1932 -21 1842 77T1752 337Q1752 515 1849 619T2105 723Q2262 723 2348 628T2435 358Q2435 186 2339 83T2084 -21ZM2099 582Q2015 582 1969 519T1922 346Q1922 239 1968 179T2095 119Q2177 119 2223 182T2269 355Q2269 463 2223 522T2099 582ZM1288 -21Q1136 -21 1046 77T956 337Q956 516 1052 619T1308 723Q1464 723 1551 627T1638 358Q1638 186 1541 83T1288 -21ZM1302 582Q1219 582 1172 520T1124 346Q1124 240 1171 180T1298 119Q1380 119 1426 182T1472 355Q1472 464 1427 523T1302 582Z"/><glyph unicode="‹" horiz-adv-x="673" d="M599 200H387L74 536L387 880H600L282 536L599 200Z"/><glyph unicode="›" horiz-adv-x="673" d="M600 538L287 200H74L392 538L75 880H287L600 538Z"/><glyph unicode="⁄" horiz-adv-x="518" d="M801 1434L-74 0H-263L610 1434H801Z"/><glyph unicode="⁰" horiz-adv-x="785" d="M385 864Q242 864 163 973T83 1293Q83 1522 165 1638T406 1754Q700 1754 700 1313Q700 1094 618 979T385 864ZM396 1623Q249 1623 249 1298Q249 1000 399 1000Q535 1000 535 1306Q535 1623 396 1623Z"/><glyph unicode="ⁱ" horiz-adv-x="455" d="M193 1588Q148 1588 120 1614T91 1681Q91 1718 119 1744T193 1771Q239 1771 267 1745T296 1681Q296 1642 268 1615T193 1588ZM275 717H109V1436H275V717Z"/><glyph unicode="⁴" horiz-adv-x="781" d="M729 1075H619V884H450V1075H56V1189L417 1734H619V1205H729V1075ZM454 1587H449Q437 1556 410 1513L215 1205H450V1505Q450 1535 454 1587Z"/><glyph unicode="⁵" horiz-adv-x="785" d="M129 908V1066Q242 1000 328 1000Q406 1000 452 1040T498 1142Q498 1278 309 1278L155 1268V1737H630V1591H308V1416Q487 1429 578 1355T670 1153Q670 1025 581 944T337 863Q207 863 129 908Z"/><glyph unicode="⁶" horiz-adv-x="785" d="M630 1723V1585Q616 1593 597 1599T557 1611T515 1619T475 1622Q422 1622 383 1606T313 1556Q284 1524 263 1466T242 1318H246Q273 1366 324 1396T451 1427Q509 1427 555 1408T633 1354T683 1270T700 1161Q700 1097 677 1043T614 948T519 886T401 863Q337 863 279 887T178 960T109 1086T83 1265Q83 1382 111 1473T191 1626T313 1720T469 1752Q513 1752 555 1745T630 1723ZM399 1314Q370 1314 344 1304T299 1275T269 1228T258 1166Q258 1133 267 1102T294 1046T338 1007T397 992Q462 992 498 1036T535 1153Q535 1228 501 1271T399 1314Z"/><glyph unicode="⁷" horiz-adv-x="776" d="M359 884H179L493 1597H82V1739H688V1666L359 884Z"/><glyph unicode="⁸" horiz-adv-x="785" d="M532 1330Q698 1259 698 1109Q698 995 614 929T377 863Q250 863 166 928T81 1100Q81 1250 243 1329Q110 1402 110 1526Q110 1628 188 1690T399 1753Q521 1753 597 1694T673 1538Q673 1407 532 1330ZM391 1402Q508 1452 508 1524Q508 1619 394 1619Q342 1619 309 1593T276 1525Q276 1451 391 1402ZM384 1258Q247 1210 247 1107Q247 1061 286 1030T386 998Q450 998 491 1029T533 1105Q533 1206 384 1258Z"/><glyph unicode="⁹" horiz-adv-x="785" d="M318 992Q379 992 422 1015T492 1080T532 1179T545 1304H541Q516 1253 463 1221T340 1189Q282 1189 235 1208T155 1263T103 1347T84 1458Q84 1523 106 1577T167 1671T263 1731T386 1753Q450 1753 507 1728T607 1652T675 1526T700 1351Q700 1246 676 1157T605 1002T489 900T328 863Q277 863 227 873T137 902V1042Q175 1022 225 1007T318 992ZM385 1623Q356 1623 331 1612T288 1579T259 1527T248 1457Q248 1384 284 1343T384 1302Q410 1302 436 1312T482 1342T514 1386T527 1440Q527 1481 517 1514T487 1572T442 1609T385 1623Z"/><glyph unicode="ⁿ" horiz-adv-x="852" d="M275 717H110V1436H273V1320H277Q345 1456 491 1456Q613 1456 681 1382T749 1173V717H582V1163Q582 1323 448 1323Q380 1323 328 1265T275 1124V717Z"/><glyph unicode="₀" horiz-adv-x="785" d="M385 -261Q242 -261 163 -152T83 168Q83 397 165 513T406 629Q700 629 700 188Q700 -31 618 -146T385 -261ZM396 498Q249 498 249 173Q249 -125 399 -125Q535 -125 535 181Q535 498 396 498Z"/><glyph unicode="₁" horiz-adv-x="759" d="M676 -241H145V-102H326V439L134 391V540L495 630V-102H676V-241Z"/><glyph unicode="₂" horiz-adv-x="785" d="M686 -241H109V-108L339 112Q438 207 465 258T492 360Q492 411 459 443T370 475Q253 475 156 373V552Q243 629 398 629Q524 629 597 561T671 380Q671 237 478 55L323 -90V-94H686V-241Z"/><glyph unicode="₃" horiz-adv-x="785" d="M130 -209V-49Q234 -122 349 -122Q424 -122 467 -89T511 0Q511 124 296 124H214V264H292Q484 264 484 381Q484 487 352 487Q255 487 160 420V575Q252 629 385 629Q507 629 579 569T651 411Q651 264 507 211V207Q681 165 681 7Q681 -112 591 -187T350 -262Q210 -262 130 -209Z"/><glyph unicode="₄" horiz-adv-x="781" d="M729 -50H619V-241H450V-50H56V64L417 609H619V80H729V-50ZM454 462H449Q437 431 410 388L215 80H450V380Q450 410 454 462Z"/><glyph unicode="₅" horiz-adv-x="785" d="M129 -217V-59Q242 -125 328 -125Q406 -125 452 -85T498 17Q498 153 309 153L155 143V612H630V466H308V291Q487 304 578 230T670 28Q670 -100 581 -181T337 -262Q207 -262 129 -217Z"/><glyph unicode="₆" horiz-adv-x="785" d="M630 598V460Q616 468 597 474T557 486T515 494T475 497Q422 497 383 481T313 431Q284 399 263 341T242 193H246Q273 241 324 271T451 302Q509 302 555 283T633 229T683 145T700 36Q700 -28 677 -82T614 -177T519 -239T401 -262Q337 -262 279 -238T178 -165T109 -39T83 140Q83 257 111 348T191 501T313 595T469 627Q513 627 555 620T630 598ZM399 189Q370 189 344 179T299 150T269 103T258 41Q258 8 267 -23T294 -79T338 -118T397 -133Q462 -133 498 -89T535 28Q535 103 501 146T399 189Z"/><glyph unicode="₇" horiz-adv-x="776" d="M359 -241H179L493 472H82V614H688V541L359 -241Z"/><glyph unicode="₈" horiz-adv-x="785" d="M532 205Q698 134 698 -16Q698 -130 614 -196T377 -262Q250 -262 166 -197T81 -25Q81 125 243 204Q110 277 110 401Q110 503 188 565T399 628Q521 628 597 569T673 413Q673 282 532 205ZM391 277Q508 327 508 399Q508 494 394 494Q342 494 309 468T276 400Q276 326 391 277ZM384 133Q247 85 247 -18Q247 -64 286 -95T386 -127Q450 -127 491 -96T533 -20Q533 81 384 133Z"/><glyph unicode="₉" horiz-adv-x="785" d="M318 -133Q379 -133 422 -110T492 -45T532 54T545 179H541Q516 128 463 96T340 64Q282 64 235 83T155 138T103 222T84 333Q84 398 106 452T167 546T263 606T386 628Q450 628 507 603T607 527T675 401T700 226Q700 121 676 32T605 -123T489 -225T328 -262Q277 -262 227 -252T137 -223V-83Q175 -103 225 -118T318 -133ZM385 498Q356 498 331 487T288 454T259 402T248 332Q248 259 284 218T384 177Q410 177 436 187T482 217T514 261T527 315Q527 356 517 389T487 447T442 484T385 498Z"/><glyph unicode="€" horiz-adv-x="1137" d="M1050 50Q912 -24 756 -24Q311 -24 226 468H104V631H207Q203 659 203 700Q203 742 209 796H104V957H231Q284 1192 432 1325T793 1458Q937 1458 1050 1402V1201Q939 1279 800 1279Q680 1279 587 1192T457 957H922V796H431Q423 708 430 631H922V468H452Q521 154 789 154Q914 154 1050 241V50Z"/><glyph unicode="™" horiz-adv-x="1581" d="M1396 772H1269V1235H1265L1072 772H979L795 1235H791V772H668V1434H836L1030 957H1034L1235 1434H1396V772ZM593 1325H397V772H267V1325H76V1434H593V1325Z"/><glyph unicode="∕" horiz-adv-x="518" d="M801 1434L-74 0H-263L610 1434H801Z"/><glyph unicode="ﬀ" horiz-adv-x="1381" d="M223 1024V1083Q223 1174 249 1252T327 1387T453 1477T624 1510Q675 1510 717 1505T789 1491V1294Q758 1307 723 1313T650 1319Q557 1319 510 1255T463 1070V1024H890V1170Q890 1252 917 1320T993 1437T1111 1512T1265 1539Q1308 1539 1342 1534T1404 1520V1323Q1351 1348 1291 1348Q1129 1348 1129 1157V1024H1366V838H1129V0H890V838H463V0H223V838H50V1024H223Z"/><glyph unicode="ﬃ" horiz-adv-x="1947" d="M1798 0H1558V838H1130V0H890V838H463V0H223V838H50V1024H223V1083Q223 1174 249 1252T327 1387T453 1477T624 1510Q675 1510 717 1505T789 1491V1294Q758 1307 723 1313T650 1319Q557 1319 510 1255T463 1070V1024H890V1038Q890 1157 927 1250T1036 1407T1216 1506T1463 1540Q1546 1540 1613 1533T1716 1516V1315Q1670 1329 1604 1338T1450 1347Q1288 1347 1210 1266T1131 1035V1024H1798V0Z"/><glyph unicode="ﬄ" horiz-adv-x="1947" d="M223 1083Q223 1174 249 1252T327 1387T453 1477T624 1510Q675 1510 717 1505T789 1491V1294Q758 1307 723 1313T650 1319Q557 1319 510 1255T463 1070V1024H889V1038Q889 1157 924 1250T1030 1407T1206 1506T1452 1540Q1487 1540 1530 1538T1619 1532T1711 1523T1798 1511V0H1559V1339Q1538 1342 1505 1344T1434 1347Q1355 1347 1298 1326T1204 1265T1148 1167T1129 1035V1024H1366V838H1129V0H889V838H463V0H223V838H50V1024H223V1083Z"/><glyph unicode="﴾" horiz-adv-x="680" d="M660 -326H464Q148 28 148 547Q148 1068 464 1434H661Q351 1054 351 549Q351 48 660 -326Z"/><glyph unicode="﴿" horiz-adv-x="680" d="M217 -326H21Q331 48 331 549Q331 1054 20 1434H218Q535 1068 535 547Q535 28 217 -326Z"/></font>
</defs>
</svg>
